<svg xmlns="http://www.w3.org/2000/svg" viewBox="0 0 800 1800" font-family="'SF Mono', 'Menlo', 'Monaco', monospace" font-size="13">
  <defs>
    <linearGradient id="bg" x1="0%" y1="0%" x2="0%" y2="100%">
      <stop offset="0%" style="stop-color:#0d1117"/>
      <stop offset="100%" style="stop-color:#161b22"/>
    </linearGradient>
    <linearGradient id="teal" x1="0%" y1="0%" x2="100%" y2="0%">
      <stop offset="0%" style="stop-color:#2ec4b6"/>
      <stop offset="100%" style="stop-color:#3dd6c8"/>
    </linearGradient>
    <linearGradient id="purple" x1="0%" y1="0%" x2="100%" y2="0%">
      <stop offset="0%" style="stop-color:#a78bfa"/>
      <stop offset="100%" style="stop-color:#c4b5fd"/>
    </linearGradient>
  </defs>

  <!-- Background -->
  <rect width="800" height="1800" fill="url(#bg)" rx="12"/>

  <!-- Terminal chrome -->
  <rect x="0" y="0" width="800" height="36" fill="#21262d" rx="12"/>
  <rect x="0" y="12" width="800" height="24" fill="#21262d"/>
  <circle cx="20" cy="18" r="6" fill="#ff5f57"/>
  <circle cx="40" cy="18" r="6" fill="#febc2e"/>
  <circle cx="60" cy="18" r="6" fill="#28c840"/>
  <text x="400" y="22" fill="#8b949e" text-anchor="middle" font-size="12">claude ~ think-through</text>

  <!-- Animation container -->
  <g>
    <!-- Frame 1: User input -->
    <g opacity="0">
      <animate attributeName="opacity" values="0;0;1;1;1;1;1;1;1;1;1;1" dur="24s" repeatCount="indefinite"/>

      <text x="30" y="70" fill="#7ee787" font-weight="bold">$</text>
      <text x="50" y="70" fill="#e6edf3">/think-through</text>

      <rect x="30" y="90" width="740" height="50" fill="#1c2128" rx="8" stroke="#30363d" stroke-width="1"/>
      <text x="45" y="112" fill="#8b949e" font-size="11">Topic:</text>
      <text x="95" y="112" fill="#e6edf3" font-size="13">Should I quit my job to start a startup?</text>
      <text x="95" y="128" fill="#484f58" font-size="10">
        <animate attributeName="fill" values="#484f58;#e6edf3;#484f58" dur="1.5s" repeatCount="indefinite"/>
        |
      </text>
    </g>

    <!-- Frame 2: Stage 1 Anchoring -->
    <g opacity="0">
      <animate attributeName="opacity" values="0;0;0;1;1;1;1;1;1;1;1;1" dur="24s" repeatCount="indefinite"/>

      <!-- Stage indicator -->
      <rect x="30" y="160" width="740" height="30" fill="#1c2128" rx="6"/>
      <rect x="30" y="160" width="148" height="30" fill="#2ec4b6" rx="6" opacity="0.15"/>
      <text x="45" y="180" fill="#2ec4b6" font-size="12" font-weight="bold">[Stage 1/5: Anchoring]</text>
      <rect x="280" y="172" width="100" height="6" fill="#30363d" rx="3"/>
      <rect x="280" y="172" width="20" height="6" fill="#2ec4b6" rx="3">
        <animate attributeName="width" values="0;20" dur="0.5s" begin="3s" fill="freeze"/>
      </rect>

      <!-- Claude response -->
      <rect x="30" y="205" width="740" height="180" fill="#1c2128" rx="8" stroke="#30363d" stroke-width="1"/>
      <circle cx="55" cy="228" r="10" fill="#a78bfa" opacity="0.2"/>
      <text x="55" y="232" fill="#a78bfa" font-size="11" text-anchor="middle">C</text>

      <text x="75" y="232" fill="#e6edf3" font-size="13">"创业" 这个词太大了。我们拆一下:</text>
      <text x="75" y="258" fill="#c9d1d9" font-size="12">你说想创业 ---- 具体是指什么？</text>
      <text x="75" y="278" fill="#c9d1d9" font-size="12">- 收入不够？成就感不够？想要自主权？</text>
      <text x="75" y="298" fill="#c9d1d9" font-size="12">- 还是已经有一个具体的产品想法？</text>

      <text x="75" y="330" fill="#8b949e" font-size="11" font-style="italic">Hint: What you're really optimizing for matters more than "startup vs job"</text>

      <!-- Options -->
      <rect x="75" y="348" width="250" height="26" fill="#21262d" rx="4" stroke="#2ec4b6" stroke-width="1"/>
      <text x="90" y="365" fill="#2ec4b6" font-size="11">A) I have a specific product idea</text>

      <rect x="345" y="348" width="250" height="26" fill="#21262d" rx="4" stroke="#30363d" stroke-width="1"/>
      <text x="360" y="365" fill="#c9d1d9" font-size="11">B) I'm unhappy at my current job</text>
    </g>

    <!-- Frame 3: Stage 2 Evidence -->
    <g opacity="0">
      <animate attributeName="opacity" values="0;0;0;0;1;1;1;1;1;1;1;1" dur="24s" repeatCount="indefinite"/>

      <!-- Stage indicator -->
      <rect x="30" y="410" width="740" height="30" fill="#1c2128" rx="6"/>
      <rect x="30" y="410" width="296" height="30" fill="#f0883e" rx="6" opacity="0.12"/>
      <text x="45" y="430" fill="#f0883e" font-size="12" font-weight="bold">[Stage 2/5: Evidence]</text>
      <rect x="280" y="422" width="100" height="6" fill="#30363d" rx="3"/>
      <rect x="280" y="422" width="40" height="6" fill="#f0883e" rx="3"/>

      <rect x="30" y="455" width="740" height="160" fill="#1c2128" rx="8" stroke="#30363d" stroke-width="1"/>
      <circle cx="55" cy="478" r="10" fill="#a78bfa" opacity="0.2"/>
      <text x="55" y="482" fill="#a78bfa" font-size="11" text-anchor="middle">C</text>

      <text x="75" y="482" fill="#e6edf3" font-size="13">OK, you have a product idea. Let's check the evidence.</text>
      <text x="75" y="508" fill="#c9d1d9" font-size="12">You said "many people" want this. Specifically who?</text>
      <text x="75" y="528" fill="#c9d1d9" font-size="12">Can you name 3 real people who told you they'd pay for it?</text>

      <rect x="75" y="548" width="680" height="26" fill="#462c16" rx="4" stroke="#f0883e" stroke-width="1" opacity="0.6"/>
      <text x="90" y="565" fill="#f0883e" font-size="11">Bias detected: Social proof ("everyone says so") -- needs concrete evidence</text>

      <text x="75" y="598" fill="#8b949e" font-size="11" font-style="italic">MANDATORY: Name one reason this idea might NOT work before we continue.</text>
    </g>

    <!-- Frame 4: Stage 3 Bridge -->
    <g opacity="0">
      <animate attributeName="opacity" values="0;0;0;0;0;1;1;1;1;1;1;1" dur="24s" repeatCount="indefinite"/>

      <rect x="30" y="640" width="740" height="30" fill="#1c2128" rx="6"/>
      <rect x="30" y="640" width="444" height="30" fill="#a78bfa" rx="6" opacity="0.1"/>
      <text x="45" y="660" fill="#a78bfa" font-size="12" font-weight="bold">[Stage 3/5: Inference Bridge]</text>
      <rect x="280" y="652" width="100" height="6" fill="#30363d" rx="3"/>
      <rect x="280" y="652" width="60" height="6" fill="#a78bfa" rx="3"/>

      <rect x="30" y="685" width="740" height="130" fill="#1c2128" rx="8" stroke="#30363d" stroke-width="1"/>
      <circle cx="55" cy="708" r="10" fill="#a78bfa" opacity="0.2"/>
      <text x="55" y="712" fill="#a78bfa" font-size="11" text-anchor="middle">C</text>

      <text x="75" y="712" fill="#e6edf3" font-size="13">Your evidence: 3 friends said they'd use it.</text>
      <text x="75" y="732" fill="#e6edf3" font-size="13">Your conclusion: this is a viable startup.</text>
      <text x="75" y="758" fill="#2ec4b6" font-size="13" font-weight="bold">But WHY does "3 friends want it" = "viable business"?</text>
      <text x="75" y="784" fill="#c9d1d9" font-size="12">Try: "If [evidence], then [conclusion] because ______"</text>
      <text x="75" y="804" fill="#8b949e" font-size="11">This is the invisible bridge most people skip.</text>
    </g>

    <!-- Frame 5: Stage 4 Stress Test -->
    <g opacity="0">
      <animate attributeName="opacity" values="0;0;0;0;0;0;1;1;1;1;1;1" dur="24s" repeatCount="indefinite"/>

      <rect x="30" y="840" width="740" height="30" fill="#1c2128" rx="6"/>
      <rect x="30" y="840" width="592" height="30" fill="#f47067" rx="6" opacity="0.1"/>
      <text x="45" y="860" fill="#f47067" font-size="12" font-weight="bold">[Stage 4/5: Stress Test]</text>
      <rect x="280" y="852" width="100" height="6" fill="#30363d" rx="3"/>
      <rect x="280" y="852" width="80" height="6" fill="#f47067" rx="3"/>

      <rect x="30" y="885" width="740" height="170" fill="#1c2128" rx="8" stroke="#30363d" stroke-width="1"/>
      <circle cx="55" cy="908" r="10" fill="#a78bfa" opacity="0.2"/>
      <text x="55" y="912" fill="#a78bfa" font-size="11" text-anchor="middle">C</text>

      <text x="75" y="912" fill="#f47067" font-size="13" font-weight="bold">Pre-mortem time.</text>
      <text x="75" y="938" fill="#e6edf3" font-size="13">It's 2027. Your startup failed. Why?</text>
      <text x="75" y="958" fill="#c9d1d9" font-size="12">Write down the 3 most likely causes of failure.</text>

      <text x="75" y="990" fill="#e6edf3" font-size="13">Your confidence: 80%</text>
      <rect x="75" y="1000" width="300" height="8" fill="#30363d" rx="4"/>
      <rect x="75" y="1000" width="240" height="8" fill="url(#teal)" rx="4"/>
      <text x="385" y="1008" fill="#8b949e" font-size="10">80%</text>

      <text x="75" y="1035" fill="#8b949e" font-size="11" font-style="italic">"Good decisions and good outcomes are not the same thing." -- Annie Duke</text>
    </g>

    <!-- Frame 6: Stage 5 Summary -->
    <g opacity="0">
      <animate attributeName="opacity" values="0;0;0;0;0;0;0;1;1;1;1;1" dur="24s" repeatCount="indefinite"/>

      <rect x="30" y="1080" width="740" height="30" fill="#1c2128" rx="6"/>
      <rect x="30" y="1080" width="740" height="30" fill="#7ee787" rx="6" opacity="0.08"/>
      <text x="45" y="1100" fill="#7ee787" font-size="12" font-weight="bold">[Stage 5/5: Summary]</text>
      <rect x="280" y="1092" width="100" height="6" fill="#7ee787" rx="3"/>

      <rect x="30" y="1125" width="740" height="420" fill="#1c2128" rx="8" stroke="#30363d" stroke-width="1"/>

      <text x="50" y="1155" fill="#e6edf3" font-size="14" font-weight="bold">Think-Through Summary</text>
      <line x1="50" y1="1165" x2="750" y2="1165" stroke="#30363d" stroke-width="1"/>

      <text x="50" y="1190" fill="#2ec4b6" font-size="12" font-weight="bold">Claim</text>
      <text x="50" y="1208" fill="#c9d1d9" font-size="12">Quitting to start this B2B SaaS is worth the risk</text>

      <text x="50" y="1238" fill="#f0883e" font-size="12" font-weight="bold">Data</text>
      <text x="50" y="1256" fill="#c9d1d9" font-size="12">3 potential users confirmed, 18mo runway saved, domain expertise</text>

      <text x="50" y="1286" fill="#a78bfa" font-size="12" font-weight="bold">Warrant</text>
      <text x="50" y="1304" fill="#c9d1d9" font-size="12">Domain expert + validated demand + runway = acceptable risk profile</text>

      <text x="50" y="1334" fill="#f47067" font-size="12" font-weight="bold">Rebuttal</text>
      <text x="50" y="1352" fill="#c9d1d9" font-size="12">Fails if: CAC too high, co-founder misalignment, market timing off</text>

      <text x="50" y="1382" fill="#7ee787" font-size="12" font-weight="bold">Qualifier</text>
      <text x="50" y="1400" fill="#c9d1d9" font-size="12">Probably viable IF first 10 paying users acquired within 6 months</text>

      <line x1="50" y1="1420" x2="750" y2="1420" stroke="#30363d" stroke-width="1"/>

      <text x="50" y="1445" fill="#e6edf3" font-size="12" font-weight="bold">Confidence: 72%</text>
      <rect x="180" y="1435" width="200" height="8" fill="#30363d" rx="4"/>
      <rect x="180" y="1435" width="144" height="8" fill="url(#teal)" rx="4"/>

      <text x="50" y="1475" fill="#8b949e" font-size="12" font-weight="bold">Biases Detected</text>
      <rect x="50" y="1485" width="120" height="22" fill="#462c16" rx="4"/>
      <text x="60" y="1500" fill="#f0883e" font-size="10">Social Proof</text>
      <rect x="180" y="1485" width="140" height="22" fill="#2a1c3e" rx="4"/>
      <text x="190" y="1500" fill="#a78bfa" font-size="10">Optimism Bias</text>
      <rect x="330" y="1485" width="130" height="22" fill="#1c2d26" rx="4"/>
      <text x="340" y="1500" fill="#2ec4b6" font-size="10">Sunk Cost</text>

      <text x="50" y="1535" fill="#8b949e" font-size="11" font-style="italic">Thinking pattern: You rely heavily on personal network validation</text>
      <text x="50" y="1553" fill="#8b949e" font-size="11" font-style="italic">over market data. Consider running quantitative validation next.</text>
    </g>

    <!-- Blinking cursor at the end -->
    <g opacity="0">
      <animate attributeName="opacity" values="0;0;0;0;0;0;0;0;1;1;1;0" dur="24s" repeatCount="indefinite"/>
      <text x="30" y="1590" fill="#7ee787" font-weight="bold">$</text>
      <text x="50" y="1590" fill="#484f58">
        <animate attributeName="fill" values="#484f58;#e6edf3;#484f58" dur="1.2s" repeatCount="indefinite"/>
        |
      </text>
    </g>
  </g>
</svg>
